<svg width="122" height="100" viewBox="0 0 122 100" fill="none" xmlns="http://www.w3.org/2000/svg">
<path d="M55.7419 71.7916C54.6044 71.2335 53.7291 70.4512 53.1147 69.4476C52.5003 68.444 52.1931 67.2905 52.1931 65.9899C52.1931 64.265 52.5917 62.727 53.3902 61.376C54.1873 60.025 55.2969 58.9763 56.7164 58.2259C58.1359 57.4768 59.7421 57.1016 61.5364 57.1016C63.0472 57.1016 64.3714 57.3813 65.5088 57.9395C66.645 58.499 67.5216 59.2799 68.136 60.2835C68.7504 61.2885 69.0576 62.4406 69.0576 63.7413C69.0576 65.4675 68.6577 67.0041 67.8606 68.3551C67.0621 69.7061 65.9538 70.7562 64.5343 71.5053C63.1148 72.2544 61.5072 72.6296 59.7143 72.6296C58.2021 72.6296 56.878 72.3511 55.7419 71.7916ZM62.2038 67.9627C62.7904 67.553 63.2379 67.0015 63.5491 66.3081C63.8589 65.6147 64.0152 64.8589 64.0152 64.0383C64.0152 63.1619 63.757 62.4619 63.2419 61.9382C62.7268 61.4158 62.017 61.1533 61.1126 61.1533C60.3208 61.1533 59.6322 61.3588 59.047 61.7685C58.4604 62.1781 58.0128 62.7297 57.7016 63.4231C57.3904 64.1165 57.2355 64.8735 57.2355 65.6929C57.2355 66.5692 57.4937 67.2693 58.0088 67.793C58.5239 68.3167 59.2337 68.5779 60.1381 68.5779C60.9286 68.5779 61.6171 68.3737 62.2038 67.9627Z" fill="#D62828"/>
<path d="M86.367 57.4409L83.4009 72.2901H78.4856L80.6679 61.3229H77.2992L76.6424 64.2291C76.1618 66.3783 75.6387 68.0475 75.0746 69.2354C74.5092 70.4234 73.8286 71.2759 73.0301 71.7916C72.2317 72.3073 71.2107 72.5659 69.9687 72.5659C69.1914 72.5659 68.5068 72.4731 67.9136 72.2901L68.9729 68.2808C69.1424 68.3233 69.3185 68.3445 69.5026 68.3445C69.9541 68.3445 70.3461 68.1814 70.6784 67.8566C71.0095 67.5317 71.3206 67.0014 71.6106 66.2656C71.8993 65.5311 72.1933 64.5195 72.4899 63.2321L73.8458 57.4409H86.367Z" fill="#D62828"/>
<path d="M99.7767 63.02C100.595 63.6988 101.005 64.7236 101.005 66.0959C101.005 67.3262 100.694 68.4121 100.073 69.3521C99.4509 70.2934 98.569 71.0173 97.425 71.5264C96.2809 72.0355 94.9528 72.2901 93.4419 72.2901H86.0266L88.9927 57.4409H93.908L92.997 62.0017H96.069C97.7216 62.0017 98.9583 62.3411 99.7767 63.02ZM95.2639 68.1854C95.6731 67.7823 95.8784 67.2772 95.8784 66.6686C95.8784 66.259 95.7684 65.962 95.55 65.7777C95.3302 65.5947 94.9819 65.5019 94.5012 65.5019H92.2978L91.641 68.7899H93.7385C94.3463 68.7899 94.8548 68.5884 95.2639 68.1854Z" fill="#D62828"/>
<path d="M114.715 61.3229H110.308L108.168 72.2901H103.253L105.392 61.3229H101.113L101.876 57.4409H115.477L114.715 61.3229Z" fill="#D62828"/>
<path d="M28.6442 16.0343H35.7099L34.3302 9.55762H33.1781H13.0006H6.52417L9.17911 21.49H15.6569L21.9268 49.661L28.6442 16.0343Z" fill="#D62828"/>
<path d="M47.822 57.1587H41.7997L38.2894 74.9419H27.5544L31.0039 90.4421L46.0993 66.1756L51.8329 56.9585C50.5352 57.0911 49.1978 57.1587 47.822 57.1587Z" fill="#D62828"/>
<path d="M81.3206 9.55762H63.2551H59.9553L55.8279 16.2225C60.9113 16.725 65.0745 18.2404 68.2352 20.7462C69.7064 21.9143 70.918 23.2507 71.8701 24.7502L73.8973 21.4913H82.2978L89.7369 9.55894H81.3206V9.55762Z" fill="#D62828"/>
<path d="M66.6742 22.8238C70.1514 25.5828 71.8914 29.4502 71.8914 34.4247C71.8914 38.4048 70.9088 41.9103 68.9438 44.9398C66.9787 47.9706 64.1781 50.3226 60.542 51.9958C56.9045 53.669 52.6924 54.5056 47.9056 54.5056H39.7064L36.196 72.2888H20.1909L30.8981 18.6846H51.9707C58.2949 18.6859 63.1956 20.0661 66.6742 22.8238ZM53.8682 40.497C55.0878 39.3899 55.6969 37.84 55.6969 35.85C55.6969 32.6388 53.7093 31.0333 49.7342 31.0333H44.3806L42.1441 42.1595H48.7173C50.9313 42.1595 52.6487 41.6067 53.8682 40.497Z" fill="white"/>
<path d="M77.5337 43.3765L77.1947 45.116H83.4659L82.7456 48.7222H76.4532L76.0718 50.6738H83.5083L82.7456 54.4498H70.415L73.3811 39.6006H85.4363L84.6736 43.3765H77.5337Z" fill="white"/>
<path d="M105.394 39.6006L102.47 54.4498H97.9149L99.2285 47.6828L95.0547 53.1133H92.8513L90.5632 47.7676L89.2284 54.4498H84.6733L87.6394 39.6006H91.7073L94.9276 47.4919L101.135 39.6006H105.394Z" fill="white"/>
</svg>
